<svg width="72" height="72" viewBox="0 0 72 72" xmlns="http://www.w3.org/2000/svg">
  <rect width="72" height="72" rx="18" fill="currentColor" opacity="0.12"/>
  <circle cx="36" cy="36" r="26" fill="currentColor" opacity="0.18"/>
  <line x1="36" y1="36" x2="36" y2="13"   stroke="currentColor" stroke-width="1.8" stroke-linecap="round"/>
  <line x1="36" y1="36" x2="59" y2="36"   stroke="currentColor" stroke-width="1.8" stroke-linecap="round"/>
  <line x1="36" y1="36" x2="36" y2="59"   stroke="currentColor" stroke-width="1.8" stroke-linecap="round"/>
  <line x1="36" y1="36" x2="13" y2="36"   stroke="currentColor" stroke-width="1.8" stroke-linecap="round"/>
  <line x1="36" y1="36" x2="49" y2="23"   stroke="currentColor" stroke-width="1.8" stroke-linecap="round"/>
  <line x1="36" y1="36" x2="49" y2="49"   stroke="currentColor" stroke-width="1.8" stroke-linecap="round"/>
  <line x1="36" y1="36" x2="23" y2="49"   stroke="currentColor" stroke-width="1.8" stroke-linecap="round"/>
  <line x1="36" y1="36" x2="23" y2="23"   stroke="currentColor" stroke-width="1.8" stroke-linecap="round"/>
  <circle cx="36" cy="13" r="4"   fill="currentColor"/>
  <circle cx="59" cy="36" r="4"   fill="currentColor"/>
  <circle cx="36" cy="59" r="4"   fill="currentColor"/>
  <circle cx="13" cy="36" r="4"   fill="currentColor"/>
  <circle cx="49" cy="23" r="2.5" fill="currentColor"/>
  <circle cx="49" cy="49" r="2.5" fill="currentColor"/>
  <circle cx="23" cy="49" r="2.5" fill="currentColor"/>
  <circle cx="23" cy="23" r="2.5" fill="currentColor"/>
  <circle cx="36" cy="36" r="4.5" fill="currentColor"/>
</svg>
