<svg width="72" height="72" viewBox="0 0 72 72" xmlns="http://www.w3.org/2000/svg">
  <rect width="72" height="72" rx="18" fill="currentColor" opacity="0.12"/>
  <circle cx="36" cy="36" r="26" fill="currentColor" opacity="0.18"/>
  <line x1="36" y1="36" x2="36"   y2="14"    stroke="currentColor" stroke-width="1.6" stroke-linecap="round"/>
  <line x1="36" y1="36" x2="50.5" y2="17.5"  stroke="currentColor" stroke-width="1.6" stroke-linecap="round"/>
  <line x1="36" y1="36" x2="58"   y2="29"    stroke="currentColor" stroke-width="1.6" stroke-linecap="round"/>
  <line x1="36" y1="36" x2="58"   y2="43"    stroke="currentColor" stroke-width="1.6" stroke-linecap="round"/>
  <line x1="36" y1="36" x2="50.5" y2="54.5"  stroke="currentColor" stroke-width="1.6" stroke-linecap="round"/>
  <line x1="36" y1="36" x2="36"   y2="58"    stroke="currentColor" stroke-width="1.6" stroke-linecap="round"/>
  <line x1="36" y1="36" x2="21.5" y2="54.5"  stroke="currentColor" stroke-width="1.6" stroke-linecap="round"/>
  <line x1="36" y1="36" x2="14"   y2="43"    stroke="currentColor" stroke-width="1.6" stroke-linecap="round"/>
  <line x1="36" y1="36" x2="14"   y2="29"    stroke="currentColor" stroke-width="1.6" stroke-linecap="round"/>
  <circle cx="36"   cy="14"   r="2.5" fill="currentColor"/>
  <circle cx="50.5" cy="17.5" r="2.5" fill="currentColor"/>
  <circle cx="58"   cy="29"   r="2.5" fill="currentColor"/>
  <circle cx="58"   cy="43"   r="2.5" fill="currentColor"/>
  <circle cx="50.5" cy="54.5" r="2.5" fill="currentColor"/>
  <circle cx="36"   cy="58"   r="2.5" fill="currentColor"/>
  <circle cx="21.5" cy="54.5" r="2.5" fill="currentColor"/>
  <circle cx="14"   cy="43"   r="2.5" fill="currentColor"/>
  <circle cx="14"   cy="29"   r="2.5" fill="currentColor"/>
  <circle cx="36" cy="36" r="5.5" fill="none" stroke="currentColor" stroke-width="1.8"/>
</svg>
