<svg width="72" height="72" viewBox="0 0 72 72" xmlns="http://www.w3.org/2000/svg">
  <rect width="72" height="72" rx="18" fill="currentColor" opacity="0.12"/>
  <circle cx="36" cy="36" r="26" fill="currentColor" opacity="0.18"/>
  <line x1="36" y1="36" x2="36" y2="15"   stroke="currentColor" stroke-width="1.8" stroke-linecap="round"/>
  <line x1="36" y1="36" x2="51" y2="21"   stroke="currentColor" stroke-width="1.8" stroke-linecap="round"/>
  <line x1="36" y1="36" x2="57" y2="36"   stroke="currentColor" stroke-width="1.8" stroke-linecap="round"/>
  <line x1="36" y1="36" x2="51" y2="51"   stroke="currentColor" stroke-width="1.8" stroke-linecap="round"/>
  <line x1="36" y1="36" x2="36" y2="57"   stroke="currentColor" stroke-width="1.8" stroke-linecap="round"/>
  <line x1="36" y1="36" x2="21" y2="51"   stroke="currentColor" stroke-width="1.8" stroke-linecap="round"/>
  <line x1="36" y1="36" x2="15" y2="36"   stroke="currentColor" stroke-width="1.8" stroke-linecap="round"/>
  <line x1="36" y1="36" x2="21" y2="21"   stroke="currentColor" stroke-width="1.8" stroke-linecap="round"/>
  <circle cx="36" cy="15" r="3.2" fill="currentColor"/>
  <circle cx="51" cy="21" r="3.2" fill="currentColor"/>
  <circle cx="57" cy="36" r="3.2" fill="currentColor"/>
  <circle cx="51" cy="51" r="3.2" fill="currentColor"/>
  <circle cx="36" cy="57" r="3.2" fill="currentColor"/>
  <circle cx="21" cy="51" r="3.2" fill="currentColor"/>
  <circle cx="15" cy="36" r="3.2" fill="currentColor"/>
  <circle cx="21" cy="21" r="3.2" fill="currentColor"/>
  <circle cx="36" cy="36" r="4.5" fill="currentColor"/>
</svg>
