<svg width="72" height="72" viewBox="0 0 72 72" xmlns="http://www.w3.org/2000/svg">
  <rect width="72" height="72" rx="18" fill="currentColor" opacity="0.12"/>
  <circle cx="36" cy="36" r="26" fill="currentColor" opacity="0.18"/>
  <line x1="36" y1="36" x2="36"   y2="19"    stroke="currentColor" stroke-width="1.8" stroke-linecap="round"/>
  <line x1="36" y1="36" x2="49.5" y2="20.5"  stroke="currentColor" stroke-width="1.8" stroke-linecap="round"/>
  <line x1="36" y1="36" x2="57"   y2="36"    stroke="currentColor" stroke-width="1.8" stroke-linecap="round"/>
  <line x1="36" y1="36" x2="54"   y2="49"    stroke="currentColor" stroke-width="1.8" stroke-linecap="round"/>
  <line x1="36" y1="36" x2="36"   y2="57"    stroke="currentColor" stroke-width="1.8" stroke-linecap="round"/>
  <line x1="36" y1="36" x2="22"   y2="54.5"  stroke="currentColor" stroke-width="1.8" stroke-linecap="round"/>
  <line x1="36" y1="36" x2="14"   y2="36"    stroke="currentColor" stroke-width="1.8" stroke-linecap="round"/>
  <line x1="36" y1="36" x2="18"   y2="22"    stroke="currentColor" stroke-width="1.8" stroke-linecap="round"/>
  <circle cx="36"   cy="19"   r="2.2" fill="currentColor"/>
  <circle cx="49.5" cy="20.5" r="2.8" fill="currentColor"/>
  <circle cx="57"   cy="36"   r="3.8" fill="currentColor"/>
  <circle cx="54"   cy="49"   r="3.4" fill="currentColor"/>
  <circle cx="36"   cy="57"   r="3.8" fill="currentColor"/>
  <circle cx="22"   cy="54.5" r="3.2" fill="currentColor"/>
  <circle cx="14"   cy="36"   r="3.8" fill="currentColor"/>
  <circle cx="18"   cy="22"   r="2.5" fill="currentColor"/>
  <circle cx="36" cy="36" r="4.5" fill="currentColor"/>
</svg>
